<svg id="svg" version="1.1" xmlns="http://www.w3.org/2000/svg" xmlns:xlink="http://www.w3.org/1999/xlink" width="400" height="40.3125" viewBox="0, 0, 400,40.3125"><g id="svgg"><path id="path0" d="M81.719 0.187 C 80.688 0.247,77.172 0.445,73.906 0.626 C 48.692 2.029,22.874 6.475,2.891 12.856 L 0.000 13.779 0.000 27.046 L 0.000 40.313 200.000 40.313 L 400.000 40.313 400.000 27.188 C 400.000 19.969,399.913 14.063,399.808 14.063 C 399.702 14.063,397.839 14.633,395.667 15.330 C 358.057 27.406,304.512 30.960,255.000 24.667 C 236.520 22.318,222.178 19.496,199.531 13.755 C 169.758 6.207,146.979 2.506,118.594 0.605 C 113.779 0.282,85.565 -0.038,81.719 0.187 " stroke="none" fill="#000000" fill-rule="evenodd"></path></g></svg>